<svg width="185" height="44" viewBox="0 0 185 44" fill="none" xmlns="http://www.w3.org/2000/svg">
<path d="M20.7847 0C21.2847 3.4 22.5847 6.5 24.3847 9.4C19.0847 23.2 1.78469 31.1 3.08469 41C3.08469 41 -4.11531 33 3.48469 25.1C5.38469 23 7.48469 20.9 9.68469 18.7C14.5847 13.5 19.5847 7.6 20.7847 0Z" fill="url(#paint0_linear)"/>
<path d="M25.0847 43.1C21.1847 37.4 14.4847 31.6 10.0847 24C9.3847 22.8 8.2847 20.7 9.6847 18.8C8.7847 19.7 6.4847 22 5.6847 22.9C4.2847 24.2 3.9847 26.3 4.8847 28C7.9847 33.9 12.1847 38.6 16.3847 43.1H25.0847Z" fill="url(#paint1_linear)"/>
<path d="M20.7847 0C20.3847 2.3 19.6847 4.5 18.7847 6.6C17.8847 8.4 17.6847 10.6 18.5847 12.3C24.7847 24.4 39.5847 31.8 38.3847 41C38.3847 41 45.5847 33 37.9847 25.1C33.9847 20.7 28.6847 16 24.8847 10.4C22.8847 7.3 21.2847 3.8 20.7847 0Z" fill="url(#paint2_linear)"/>
<path d="M7.58459 43.0999C6.38459 43.0999 5.28459 42.1999 5.48459 40.9999C6.78459 33.2999 18.4846 26.3999 24.5846 16.1999C25.2846 14.9999 26.1846 12.7999 24.9846 10.3999C25.6846 11.7999 27.9846 14.4999 28.8846 15.3999C30.1846 16.8999 30.5846 18.8999 29.5846 20.5999C24.3846 29.7999 15.2846 36.2999 12.0846 42.9999H7.58459V43.0999Z" fill="url(#paint3_linear)"/>
<path d="M35.9846 40.9C34.7846 33.9 24.9846 27.5 18.5846 18.7C17.0846 20.5 15.5846 22.1999 13.9846 23.7999C19.2846 31.2999 26.6846 37 29.3846 43H33.8846C35.0846 43.1 36.1846 42.1 35.9846 40.9Z" fill="url(#paint4_linear)"/>
<path d="M29.8847 26.3C27.0847 30.5 23.6847 34.1 20.7847 37.5C22.3847 39.4 23.8847 41.2 25.1847 43C28.4847 39.4 31.8847 35.7 34.6847 31.4C33.1847 29.8 31.5847 28.1 29.8847 26.3Z" fill="url(#paint5_linear)"/>
<path d="M69.3846 39.7H66.9846L53.3846 19.1V39.7H50.9846V15.2H53.3846L66.9846 35.7V15.2H69.3846V39.7Z" fill="url(#paint6_linear)"/>
<path d="M75.6846 17.2V26.3H84.9846V28.3H75.6846V37.5999H85.9846V39.5999H73.1846V15.2H85.9846V17.2H75.6846Z" fill="url(#paint7_linear)"/>
<path d="M97.8847 27.4998L105.285 39.6998H102.585L96.3847 29.4998L90.4847 39.6998H87.7847L95.1847 27.3998L87.7847 15.2998H90.4847L96.6847 25.4998L102.685 15.2998H105.385L97.8847 27.4998Z" fill="url(#paint8_linear)"/>
<path d="M122.085 15.2V17.2H115.285V39.5999H112.885V17.2H105.985V15.2H122.085Z" fill="url(#paint9_linear)"/>
<path d="M143.485 22.2999C142.785 20.6999 141.685 19.3999 140.285 18.4999C138.885 17.5999 137.185 17.0999 135.185 17.0999C133.385 17.0999 131.785 17.4999 130.285 18.3999C128.885 19.1999 127.685 20.3999 126.885 21.9999C126.085 23.5999 125.585 25.3999 125.585 27.3999C125.585 29.3999 125.985 31.2999 126.885 32.7999C127.685 34.3999 128.885 35.5999 130.285 36.3999C131.685 37.1999 133.385 37.6999 135.185 37.6999C136.885 37.6999 138.385 37.2999 139.785 36.5999C141.185 35.8999 142.285 34.7999 143.085 33.4999C143.885 32.0999 144.385 30.4999 144.485 28.6999H134.185V26.6999H147.085V28.4999C146.985 30.5999 146.385 32.5999 145.385 34.2999C144.385 35.9999 142.885 37.3999 141.185 38.3999C139.385 39.3999 137.485 39.8999 135.285 39.8999C132.985 39.8999 130.985 39.3999 129.085 38.2999C127.285 37.1999 125.785 35.7999 124.685 33.8999C123.585 31.9999 123.085 29.7999 123.085 27.3999C123.085 24.9999 123.585 22.7999 124.685 20.8999C125.785 18.9999 127.185 17.4999 129.085 16.4999C130.885 15.3999 132.985 14.8999 135.285 14.8999C137.885 14.8999 140.185 15.5999 142.185 16.8999C144.185 18.1999 145.585 19.9999 146.485 22.3999H143.485V22.2999Z" fill="url(#paint10_linear)"/>
<path d="M152.285 17.2V26.3H161.585V28.3H152.285V37.5999H162.585V39.5999H149.785V15.2H162.585V17.2H152.285Z" fill="url(#paint11_linear)"/>
<path d="M184.085 39.7H181.685L168.185 19.1V39.7H165.785V15.2H168.185L181.685 35.7V15.2H184.085V39.7Z" fill="url(#paint12_linear)"/>
<defs>
<linearGradient id="paint0_linear" x1="23.451" y1="8.8714" x2="-3.25361" y2="35.7445" gradientUnits="userSpaceOnUse">
<stop stop-color="#FFD900"/>
<stop offset="0.0489088" stop-color="#FFDA05"/>
<stop offset="0.1058" stop-color="#FFDF13"/>
<stop offset="0.1667" stop-color="#FFE62A"/>
<stop offset="0.2299" stop-color="#FFF04B"/>
<stop offset="0.2921" stop-color="#FFFC72"/>
<stop offset="0.2937" stop-color="#FFFB6F"/>
<stop offset="0.3139" stop-color="#FFF14D"/>
<stop offset="0.3354" stop-color="#FFE831"/>
<stop offset="0.3586" stop-color="#FFE11B"/>
<stop offset="0.384" stop-color="#FFDD0C"/>
<stop offset="0.4134" stop-color="#FFDA03"/>
<stop offset="0.4562" stop-color="#FFD900"/>
<stop offset="0.5331" stop-color="#FFD900"/>
<stop offset="1" stop-color="#FFD900"/>
</linearGradient>
<linearGradient id="paint1_linear" x1="5.0658" y1="23.5263" x2="25.9446" y2="42.799" gradientUnits="userSpaceOnUse">
<stop stop-color="#FFD900"/>
<stop offset="0.0489088" stop-color="#FFDA05"/>
<stop offset="0.1058" stop-color="#FFDF13"/>
<stop offset="0.1667" stop-color="#FFE62A"/>
<stop offset="0.2299" stop-color="#FFF04B"/>
<stop offset="0.2921" stop-color="#FFFC72"/>
<stop offset="0.2937" stop-color="#FFFB6F"/>
<stop offset="0.3139" stop-color="#FFF14D"/>
<stop offset="0.3354" stop-color="#FFE831"/>
<stop offset="0.3586" stop-color="#FFE11B"/>
<stop offset="0.384" stop-color="#FFDD0C"/>
<stop offset="0.4134" stop-color="#FFDA03"/>
<stop offset="0.4562" stop-color="#FFD900"/>
<stop offset="0.5331" stop-color="#FFD900"/>
<stop offset="1" stop-color="#FFD900"/>
</linearGradient>
<linearGradient id="paint2_linear" x1="17.0977" y1="7.977" x2="44.4006" y2="35.3744" gradientUnits="userSpaceOnUse">
<stop stop-color="#FFD900"/>
<stop offset="0.0489088" stop-color="#FFDA05"/>
<stop offset="0.1058" stop-color="#FFDF13"/>
<stop offset="0.1667" stop-color="#FFE62A"/>
<stop offset="0.2299" stop-color="#FFF04B"/>
<stop offset="0.2921" stop-color="#FFFC72"/>
<stop offset="0.2937" stop-color="#FFFB6F"/>
<stop offset="0.3139" stop-color="#FFF14D"/>
<stop offset="0.3354" stop-color="#FFE831"/>
<stop offset="0.3586" stop-color="#FFE11B"/>
<stop offset="0.384" stop-color="#FFDD0C"/>
<stop offset="0.4134" stop-color="#FFDA03"/>
<stop offset="0.4562" stop-color="#FFD900"/>
<stop offset="0.5331" stop-color="#FFD900"/>
<stop offset="1" stop-color="#FFD900"/>
</linearGradient>
<linearGradient id="paint3_linear" x1="28.8295" y1="15.1584" x2="5.3055" y2="41.4222" gradientUnits="userSpaceOnUse">
<stop stop-color="#FFD900"/>
<stop offset="0.0489088" stop-color="#FFDA05"/>
<stop offset="0.1058" stop-color="#FFDF13"/>
<stop offset="0.1667" stop-color="#FFE62A"/>
<stop offset="0.2299" stop-color="#FFF04B"/>
<stop offset="0.2921" stop-color="#FFFC72"/>
<stop offset="0.2937" stop-color="#FFFB6F"/>
<stop offset="0.3139" stop-color="#FFF14D"/>
<stop offset="0.3354" stop-color="#FFE831"/>
<stop offset="0.3586" stop-color="#FFE11B"/>
<stop offset="0.384" stop-color="#FFDD0C"/>
<stop offset="0.4134" stop-color="#FFDA03"/>
<stop offset="0.4562" stop-color="#FFD900"/>
<stop offset="0.5331" stop-color="#FFD900"/>
<stop offset="1" stop-color="#FFD900"/>
</linearGradient>
<linearGradient id="paint4_linear" x1="16.5724" y1="21.2492" x2="33.9555" y2="42.2223" gradientUnits="userSpaceOnUse">
<stop stop-color="#FFD900"/>
<stop offset="0.0489088" stop-color="#FFDA05"/>
<stop offset="0.1058" stop-color="#FFDF13"/>
<stop offset="0.1667" stop-color="#FFE62A"/>
<stop offset="0.2299" stop-color="#FFF04B"/>
<stop offset="0.2921" stop-color="#FFFC72"/>
<stop offset="0.2937" stop-color="#FFFB6F"/>
<stop offset="0.3139" stop-color="#FFF14D"/>
<stop offset="0.3354" stop-color="#FFE831"/>
<stop offset="0.3586" stop-color="#FFE11B"/>
<stop offset="0.384" stop-color="#FFDD0C"/>
<stop offset="0.4134" stop-color="#FFDA03"/>
<stop offset="0.4562" stop-color="#FFD900"/>
<stop offset="0.5331" stop-color="#FFD900"/>
<stop offset="1" stop-color="#FFD900"/>
</linearGradient>
<linearGradient id="paint5_linear" x1="32.6539" y1="29.1759" x2="22.8286" y2="39.6626" gradientUnits="userSpaceOnUse">
<stop stop-color="#FFD900"/>
<stop offset="0.0489088" stop-color="#FFDA05"/>
<stop offset="0.1058" stop-color="#FFDF13"/>
<stop offset="0.1667" stop-color="#FFE62A"/>
<stop offset="0.2299" stop-color="#FFF04B"/>
<stop offset="0.2921" stop-color="#FFFC72"/>
<stop offset="0.2937" stop-color="#FFFB6F"/>
<stop offset="0.3139" stop-color="#FFF14D"/>
<stop offset="0.3354" stop-color="#FFE831"/>
<stop offset="0.3586" stop-color="#FFE11B"/>
<stop offset="0.384" stop-color="#FFDD0C"/>
<stop offset="0.4134" stop-color="#FFDA03"/>
<stop offset="0.4562" stop-color="#FFD900"/>
<stop offset="0.5331" stop-color="#FFD900"/>
<stop offset="1" stop-color="#FFD900"/>
</linearGradient>
<linearGradient id="paint6_linear" x1="50.9846" y1="27.4344" x2="69.4143" y2="27.4344" gradientUnits="userSpaceOnUse">
<stop stop-color="#FFD900"/>
<stop offset="0.0489088" stop-color="#FFDA05"/>
<stop offset="0.1058" stop-color="#FFDF13"/>
<stop offset="0.1667" stop-color="#FFE62A"/>
<stop offset="0.2299" stop-color="#FFF04B"/>
<stop offset="0.2921" stop-color="#FFFC72"/>
<stop offset="0.2937" stop-color="#FFFB6F"/>
<stop offset="0.3139" stop-color="#FFF14D"/>
<stop offset="0.3354" stop-color="#FFE831"/>
<stop offset="0.3586" stop-color="#FFE11B"/>
<stop offset="0.384" stop-color="#FFDD0C"/>
<stop offset="0.4134" stop-color="#FFDA03"/>
<stop offset="0.4562" stop-color="#FFD900"/>
<stop offset="0.5331" stop-color="#FFD900"/>
<stop offset="1" stop-color="#FFD900"/>
</linearGradient>
<linearGradient id="paint7_linear" x1="73.2259" y1="27.4164" x2="85.9898" y2="27.4164" gradientUnits="userSpaceOnUse">
<stop stop-color="#FFD900"/>
<stop offset="0.0489088" stop-color="#FFDA05"/>
<stop offset="0.1058" stop-color="#FFDF13"/>
<stop offset="0.1667" stop-color="#FFE62A"/>
<stop offset="0.2299" stop-color="#FFF04B"/>
<stop offset="0.2921" stop-color="#FFFC72"/>
<stop offset="0.2937" stop-color="#FFFB6F"/>
<stop offset="0.3139" stop-color="#FFF14D"/>
<stop offset="0.3354" stop-color="#FFE831"/>
<stop offset="0.3586" stop-color="#FFE11B"/>
<stop offset="0.384" stop-color="#FFDD0C"/>
<stop offset="0.4134" stop-color="#FFDA03"/>
<stop offset="0.4562" stop-color="#FFD900"/>
<stop offset="0.5331" stop-color="#FFD900"/>
<stop offset="1" stop-color="#FFD900"/>
</linearGradient>
<linearGradient id="paint8_linear" x1="87.7028" y1="27.4342" x2="105.329" y2="27.4342" gradientUnits="userSpaceOnUse">
<stop stop-color="#FFD900"/>
<stop offset="0.0489088" stop-color="#FFDA05"/>
<stop offset="0.1058" stop-color="#FFDF13"/>
<stop offset="0.1667" stop-color="#FFE62A"/>
<stop offset="0.2299" stop-color="#FFF04B"/>
<stop offset="0.2921" stop-color="#FFFC72"/>
<stop offset="0.2937" stop-color="#FFFB6F"/>
<stop offset="0.3139" stop-color="#FFF14D"/>
<stop offset="0.3354" stop-color="#FFE831"/>
<stop offset="0.3586" stop-color="#FFE11B"/>
<stop offset="0.384" stop-color="#FFDD0C"/>
<stop offset="0.4134" stop-color="#FFDA03"/>
<stop offset="0.4562" stop-color="#FFD900"/>
<stop offset="0.5331" stop-color="#FFD900"/>
<stop offset="1" stop-color="#FFD900"/>
</linearGradient>
<linearGradient id="paint9_linear" x1="106.029" y1="27.4344" x2="122.08" y2="27.4344" gradientUnits="userSpaceOnUse">
<stop stop-color="#FFD900"/>
<stop offset="0.0489088" stop-color="#FFDA05"/>
<stop offset="0.1058" stop-color="#FFDF13"/>
<stop offset="0.1667" stop-color="#FFE62A"/>
<stop offset="0.2299" stop-color="#FFF04B"/>
<stop offset="0.2921" stop-color="#FFFC72"/>
<stop offset="0.2937" stop-color="#FFFB6F"/>
<stop offset="0.3139" stop-color="#FFF14D"/>
<stop offset="0.3354" stop-color="#FFE831"/>
<stop offset="0.3586" stop-color="#FFE11B"/>
<stop offset="0.384" stop-color="#FFDD0C"/>
<stop offset="0.4134" stop-color="#FFDA03"/>
<stop offset="0.4562" stop-color="#FFD900"/>
<stop offset="0.5331" stop-color="#FFD900"/>
<stop offset="1" stop-color="#FFD900"/>
</linearGradient>
<linearGradient id="paint10_linear" x1="123.095" y1="27.4164" x2="147.085" y2="27.4164" gradientUnits="userSpaceOnUse">
<stop stop-color="#FFD900"/>
<stop offset="0.0489088" stop-color="#FFDA05"/>
<stop offset="0.1058" stop-color="#FFDF13"/>
<stop offset="0.1667" stop-color="#FFE62A"/>
<stop offset="0.2299" stop-color="#FFF04B"/>
<stop offset="0.2921" stop-color="#FFFC72"/>
<stop offset="0.2937" stop-color="#FFFB6F"/>
<stop offset="0.3139" stop-color="#FFF14D"/>
<stop offset="0.3354" stop-color="#FFE831"/>
<stop offset="0.3586" stop-color="#FFE11B"/>
<stop offset="0.384" stop-color="#FFDD0C"/>
<stop offset="0.4134" stop-color="#FFDA03"/>
<stop offset="0.4562" stop-color="#FFD900"/>
<stop offset="0.5331" stop-color="#FFD900"/>
<stop offset="1" stop-color="#FFD900"/>
</linearGradient>
<linearGradient id="paint11_linear" x1="149.813" y1="27.4164" x2="162.576" y2="27.4164" gradientUnits="userSpaceOnUse">
<stop stop-color="#FFD900"/>
<stop offset="0.0489088" stop-color="#FFDA05"/>
<stop offset="0.1058" stop-color="#FFDF13"/>
<stop offset="0.1667" stop-color="#FFE62A"/>
<stop offset="0.2299" stop-color="#FFF04B"/>
<stop offset="0.2921" stop-color="#FFFC72"/>
<stop offset="0.2937" stop-color="#FFFB6F"/>
<stop offset="0.3139" stop-color="#FFF14D"/>
<stop offset="0.3354" stop-color="#FFE831"/>
<stop offset="0.3586" stop-color="#FFE11B"/>
<stop offset="0.384" stop-color="#FFDD0C"/>
<stop offset="0.4134" stop-color="#FFDA03"/>
<stop offset="0.4562" stop-color="#FFD900"/>
<stop offset="0.5331" stop-color="#FFD900"/>
<stop offset="1" stop-color="#FFD900"/>
</linearGradient>
<linearGradient id="paint12_linear" x1="165.655" y1="27.4344" x2="184.085" y2="27.4344" gradientUnits="userSpaceOnUse">
<stop stop-color="#FFD900"/>
<stop offset="0.0489088" stop-color="#FFDA05"/>
<stop offset="0.1058" stop-color="#FFDF13"/>
<stop offset="0.1667" stop-color="#FFE62A"/>
<stop offset="0.2299" stop-color="#FFF04B"/>
<stop offset="0.2921" stop-color="#FFFC72"/>
<stop offset="0.2937" stop-color="#FFFB6F"/>
<stop offset="0.3139" stop-color="#FFF14D"/>
<stop offset="0.3354" stop-color="#FFE831"/>
<stop offset="0.3586" stop-color="#FFE11B"/>
<stop offset="0.384" stop-color="#FFDD0C"/>
<stop offset="0.4134" stop-color="#FFDA03"/>
<stop offset="0.4562" stop-color="#FFD900"/>
<stop offset="0.5331" stop-color="#FFD900"/>
<stop offset="1" stop-color="#FFD900"/>
</linearGradient>
</defs>
</svg>
