<svg xmlns="http://www.w3.org/2000/svg" xmlns:xlink="http://www.w3.org/1999/xlink" viewBox="0 0 664 779.57"><defs><style>.cls-1{opacity:0.5;}.cls-2{fill:url(#linear-gradient);}.cls-3{fill:#fff;}.cls-4{fill:#bbb;}.cls-5{fill:#dbdbdb;}.cls-6{fill:#e0e0e0;}.cls-7{fill:#f5f5f5;}.cls-8{fill:#f96772;}.cls-9{fill:#333;}.cls-10{opacity:0.1;isolation:isolate;}.cls-11{fill:#fda57d;}.cls-12{fill:url(#linear-gradient-2);}.cls-13{fill:#fafafa;}.cls-14{fill:url(#linear-gradient-3);}.cls-15{fill:#eee;}</style><linearGradient id="linear-gradient" x1="323.52" y1="-273" x2="629.98" y2="450.66" gradientTransform="matrix(1, 0, 0, -1, -279.69, 439.76)" gradientUnits="userSpaceOnUse"><stop offset="0" stop-color="gray" stop-opacity="0.25"/><stop offset="0.54" stop-color="gray" stop-opacity="0.12"/><stop offset="1" stop-color="gray" stop-opacity="0.1"/></linearGradient><linearGradient id="linear-gradient-2" x1="557.06" y1="-354.44" x2="862.34" y2="366.46" xlink:href="#linear-gradient"/><linearGradient id="linear-gradient-3" x1="430.19" y1="51.17" x2="430.19" y2="210.24" gradientTransform="matrix(1, 0, 0, -1, 0, 504.43)" xlink:href="#linear-gradient"/></defs><g id="Layer_2" data-name="Layer 2"><g id="_174006fb-eaae-4ceb-a44a-e510ad2f60cc" data-name="174006fb-eaae-4ceb-a44a-e510ad2f60cc"><g class="cls-1"><path class="cls-2" d="M377.11.57,14.86,1.45A14.89,14.89,0,0,0,0,16.36L1.65,684.09a14.89,14.89,0,0,0,14.93,14.85h0l362.25-.88a14.89,14.89,0,0,0,14.85-14.92L392,15.41A14.89,14.89,0,0,0,377.11.57Z"/><rect class="cls-3" x="6.13" y="0.43" width="381.44" height="688.5" rx="13.64" transform="translate(-0.84 0.48) rotate(-0.14)"/><path class="cls-4" d="M377.62,190.79h0l-.38-159a14.48,14.48,0,0,0-14.52-14.45l-70.85.17a30.92,30.92,0,0,1-30.41,26.38l-131.75.32A30.91,30.91,0,0,1,99.17,18l-69.79.17A14.48,14.48,0,0,0,14.93,32.67L15.32,193l1.13,464.66A14.49,14.49,0,0,0,31,672.09l333.34-.81a14.5,14.5,0,0,0,14.41-14.49Z"/><rect class="cls-5" x="150.12" y="25.97" width="85" height="5.31" rx="2" transform="translate(-0.41 2.89) rotate(-0.86)"/><circle class="cls-5" cx="253.17" cy="27.19" r="3.19"/><rect class="cls-6" x="166.1" y="103.53" width="177.59" height="14.16"/><rect class="cls-6" x="166.1" y="131.85" width="177.59" height="14.16"/><ellipse class="cls-7" cx="78.09" cy="118.93" rx="33.54" ry="33.7"/><path class="cls-8" d="M92.54,142.52H63.45a8.65,8.65,0,0,0-7.08,3.76,43.62,43.62,0,0,0,43,.24A8.64,8.64,0,0,0,92.54,142.52Z"/><path class="cls-9" d="M63.69,119.79S59.43,132.19,57.1,131c0,0,22.44,19.38,42.25,0a58.73,58.73,0,0,0-8.53-11.24Z"/><circle class="cls-9" cx="78.07" cy="118.63" r="16.67"/><path class="cls-10" d="M72.21,136.74H83.84v4.52a5.34,5.34,0,0,1-5.34,5.34h-1a5.34,5.34,0,0,1-5.34-5.34v-4.52Z"/><path class="cls-11" d="M73.44,136.46h9.18a1.23,1.23,0,0,1,1.23,1.23V141a5.34,5.34,0,0,1-5.34,5.34h-1a5.34,5.34,0,0,1-5.3-5.34v-3.29a1.23,1.23,0,0,1,1.2-1.26Z"/><path class="cls-10" d="M72.24,138.14a16.74,16.74,0,0,0,11.63,0v-1.35H72.24Z"/><circle class="cls-11" cx="78.07" cy="122.25" r="16.67"/><path class="cls-9" d="M62.14,115.92H93.92s-2.71-12.83-14.73-12S62.14,115.92,62.14,115.92Z"/><ellipse class="cls-11" cx="61.75" cy="121.54" rx="1.55" ry="2.91"/><ellipse class="cls-11" cx="94.31" cy="121.54" rx="1.55" ry="2.91"/><path class="cls-10" d="M62.14,116.36H93.92s-2.71-12.83-14.73-12S62.14,116.36,62.14,116.36Z"/><rect class="cls-6" x="166.1" y="211.39" width="177.59" height="14.16"/><rect class="cls-6" x="166.1" y="239.71" width="177.59" height="14.16"/><ellipse class="cls-6" cx="78.09" cy="226.79" rx="33.54" ry="33.7"/><rect class="cls-6" x="166.1" y="319.25" width="177.59" height="14.16"/><rect class="cls-6" x="166.1" y="347.57" width="177.59" height="14.16"/><ellipse class="cls-6" cx="78.09" cy="334.65" rx="33.54" ry="33.7"/><rect class="cls-6" x="166.1" y="427.11" width="177.59" height="14.16"/><rect class="cls-6" x="166.1" y="455.43" width="177.59" height="14.16"/><ellipse class="cls-6" cx="78.09" cy="442.51" rx="33.54" ry="33.7"/><rect class="cls-6" x="166.1" y="534.97" width="177.59" height="14.16"/><rect class="cls-6" x="166.1" y="563.29" width="177.59" height="14.16"/><ellipse class="cls-6" cx="78.09" cy="550.37" rx="33.54" ry="33.7"/></g><path class="cls-12" d="M610.26,84.46,248,85.34a14.89,14.89,0,0,0-14.85,14.92l1.65,664.46a14.89,14.89,0,0,0,14.93,14.85h0L612,778.69a14.89,14.89,0,0,0,14.83-14.9L625.18,99.33a14.89,14.89,0,0,0-14.91-14.87Z"/><rect class="cls-3" x="239.28" y="81.05" width="381.44" height="688.5" rx="13.64" transform="translate(-1.04 1.05) rotate(-0.14)"/><path id="_9f21819d-df43-48b3-835e-9020276cbed3" data-name="9f21819d-df43-48b3-835e-9020276cbed3" class="cls-13" d="M610.77,272.5l-.38-160.13a14.48,14.48,0,0,0-14.52-14.45L525,98.09a30.92,30.92,0,0,1-30.41,26.38l-131.74.32a30.91,30.91,0,0,1-30.54-26.23l-69.79.17a14.48,14.48,0,0,0-14.45,14.52l.39,160.34"/><path id="c36a71a1-8927-4a8e-aa0b-340c78108d04" class="cls-13" d="M248.46,273.6l1.13,464.66a14.48,14.48,0,0,0,14.52,14.45l333.34-.81a14.48,14.48,0,0,0,14.45-14.52l-1.14-466"/><rect class="cls-6" x="280.5" y="164.54" width="70.82" height="70.82"/><g class="cls-1"><rect class="cls-14" x="196.37" y="294.19" width="467.63" height="159.07"/></g><rect class="cls-3" x="201.94" y="300.73" width="456.5" height="147.08"/><rect class="cls-8" x="384" y="355.2" width="177.59" height="14.16"/><rect class="cls-8" x="384" y="383.53" width="177.59" height="14.16"/><rect class="cls-6" x="384" y="512.09" width="177.59" height="14.16"/><rect class="cls-15" x="384" y="540.41" width="177.59" height="14.16"/><rect class="cls-8" x="433.03" y="221.19" width="79.53" height="25.06"/><ellipse class="cls-7" cx="295.99" cy="370.6" rx="33.54" ry="33.7"/><path class="cls-8" d="M310.44,394.19h-29.1a8.65,8.65,0,0,0-7.08,3.76,43.62,43.62,0,0,0,43,.24A8.66,8.66,0,0,0,310.44,394.19Z"/><path class="cls-9" d="M281.59,371.47s-4.26,12.4-6.59,11.24c0,0,22.44,19.38,42.25,0a58.73,58.73,0,0,0-8.53-11.24Z"/><circle class="cls-9" cx="295.97" cy="370.31" r="16.67"/><path class="cls-10" d="M290.11,388.42h11.63v4.52a5.34,5.34,0,0,1-5.34,5.34h-1a5.34,5.34,0,0,1-5.34-5.34v-4.52Z"/><path class="cls-11" d="M291.34,388.14h9.18a1.23,1.23,0,0,1,1.23,1.23h0v3.29a5.34,5.34,0,0,1-5.33,5.35h-1a5.34,5.34,0,0,1-5.34-5.34v-3.29a1.23,1.23,0,0,1,1.23-1.23h0Z"/><path class="cls-10" d="M290.13,389.79a16.74,16.74,0,0,0,11.63,0v-1.43H290.13Z"/><circle class="cls-11" cx="295.97" cy="373.92" r="16.67"/><path class="cls-9" d="M280,367.6h31.78s-2.71-12.83-14.73-12S280,367.6,280,367.6Z"/><ellipse class="cls-11" cx="279.65" cy="373.21" rx="1.55" ry="2.91"/><ellipse class="cls-11" cx="312.2" cy="373.21" rx="1.55" ry="2.91"/><path class="cls-10" d="M280,368h31.78s-2.71-12.83-14.73-12S280,368,280,368Z"/><ellipse class="cls-6" cx="317.78" cy="528.58" rx="33.54" ry="33.7"/><ellipse class="cls-6" cx="317.78" cy="658.23" rx="33.54" ry="33.7"/><rect class="cls-6" x="384" y="637.38" width="177.59" height="14.16"/><rect class="cls-15" x="384" y="665.7" width="177.59" height="14.16"/><rect class="cls-6" x="384" y="164.54" width="177.59" height="14.16"/><rect class="cls-6" x="384" y="192.87" width="177.59" height="14.16"/><rect class="cls-5" x="383.27" y="106.61" width="85" height="5.31" rx="2" transform="translate(-1.59 6.4) rotate(-0.86)"/><circle class="cls-5" cx="486.32" cy="107.83" r="3.19"/></g></g></svg>